<svg xmlns="http://www.w3.org/2000/svg" xmlns:xlink="http://www.w3.org/1999/xlink" width="317" zoomAndPan="magnify" viewBox="0 0 237.75 145.500001" height="194" preserveAspectRatio="xMidYMid meet" version="1.0"><defs><g/></defs><path fill="#737373" d="M 61.578125 69.203125 C 48.195312 61.480469 21.050781 45.804688 20.855469 45.695312 C 32.515625 38.960938 59.664062 23.289062 61.578125 22.183594 C 65.417969 19.964844 61.949219 14 58.09375 16.226562 C 44.714844 23.953125 31.335938 31.675781 17.957031 39.402344 C 16.042969 40.503906 14.128906 41.609375 12.214844 42.714844 C 9.976562 44.007812 9.976562 47.378906 12.214844 48.671875 C 25.59375 56.394531 56.179688 74.054688 58.09375 75.160156 C 61.945312 77.382812 65.425781 71.425781 61.578125 69.203125 " fill-opacity="1" fill-rule="nonzero"/><path fill="#737373" d="M 225 42.714844 C 211.621094 34.992188 181.035156 17.332031 179.121094 16.226562 C 175.269531 14.003906 171.792969 19.960938 175.640625 22.183594 C 189.019531 29.90625 216.167969 45.582031 216.363281 45.695312 C 204.703125 52.425781 177.554688 68.101562 175.640625 69.203125 C 171.796875 71.421875 175.265625 77.386719 179.121094 75.160156 C 192.5 67.4375 223.085938 49.777344 225 48.671875 C 227.238281 47.378906 227.238281 44.007812 225 42.714844 " fill-opacity="1" fill-rule="nonzero"/><path fill="#96031a" d="M 126.789062 37.085938 L 119.367188 37.085938 L 119.367188 29.652344 L 126.789062 29.652344 Z M 126.789062 46.03125 L 119.367188 46.03125 L 119.367188 38.601562 L 126.789062 38.601562 Z M 110.417969 46.03125 L 110.417969 38.601562 L 117.847656 38.601562 L 117.847656 46.03125 Z M 110.417969 29.652344 L 117.847656 29.652344 L 117.847656 37.085938 L 110.417969 37.085938 Z M 167.050781 38.488281 C 162.960938 35.191406 158.875 31.898438 154.785156 28.601562 L 154.785156 18.394531 C 154.785156 17.714844 154.265625 17.160156 153.621094 17.160156 L 148.058594 17.160156 C 147.410156 17.160156 146.890625 17.714844 146.890625 18.394531 L 146.890625 22.234375 C 143.449219 19.460938 140.003906 16.683594 136.550781 13.910156 C 131.054688 9.480469 125.550781 5.042969 120.046875 0.613281 C 119.628906 0.183594 119.117188 0.0117188 118.609375 0.0351562 C 118.101562 0.0117188 117.585938 0.183594 117.167969 0.613281 C 106.996094 8.800781 96.828125 16.992188 86.667969 25.191406 C 81.164062 29.621094 75.65625 34.046875 70.164062 38.488281 C 68.714844 39.644531 69.960938 41.964844 71.605469 41.964844 L 82.421875 41.964844 L 82.421875 73.613281 C 82.421875 74.722656 83.359375 75.648438 84.472656 75.648438 L 152.746094 75.648438 C 153.855469 75.648438 154.785156 74.722656 154.785156 73.613281 L 154.785156 41.964844 L 165.613281 41.964844 C 167.257812 41.964844 168.5 39.644531 167.050781 38.488281 " fill-opacity="1" fill-rule="nonzero"/><g fill="#737373" fill-opacity="1"><g transform="translate(24.307415, 121.794964)"><g><path d="M 13.09375 -4.46875 C 13.851562 -4.46875 14.585938 -4.578125 15.296875 -4.796875 C 16.003906 -5.023438 16.523438 -5.242188 16.859375 -5.453125 L 17.34375 -5.796875 L 19.453125 -1.59375 C 19.378906 -1.539062 19.28125 -1.472656 19.15625 -1.390625 C 19.039062 -1.304688 18.757812 -1.144531 18.3125 -0.90625 C 17.863281 -0.664062 17.382812 -0.457031 16.875 -0.28125 C 16.375 -0.113281 15.710938 0.0351562 14.890625 0.171875 C 14.066406 0.316406 13.21875 0.390625 12.34375 0.390625 C 10.320312 0.390625 8.410156 -0.101562 6.609375 -1.09375 C 4.804688 -2.082031 3.351562 -3.441406 2.25 -5.171875 C 1.15625 -6.898438 0.609375 -8.769531 0.609375 -10.78125 C 0.609375 -12.3125 0.929688 -13.773438 1.578125 -15.171875 C 2.222656 -16.566406 3.082031 -17.765625 4.15625 -18.765625 C 5.238281 -19.765625 6.492188 -20.5625 7.921875 -21.15625 C 9.359375 -21.75 10.832031 -22.046875 12.34375 -22.046875 C 13.738281 -22.046875 15.023438 -21.878906 16.203125 -21.546875 C 17.390625 -21.210938 18.226562 -20.878906 18.71875 -20.546875 L 19.453125 -20.0625 L 17.34375 -15.859375 C 17.226562 -15.960938 17.046875 -16.085938 16.796875 -16.234375 C 16.554688 -16.378906 16.066406 -16.570312 15.328125 -16.8125 C 14.597656 -17.0625 13.851562 -17.1875 13.09375 -17.1875 C 11.90625 -17.1875 10.835938 -16.992188 9.890625 -16.609375 C 8.953125 -16.222656 8.207031 -15.71875 7.65625 -15.09375 C 7.101562 -14.46875 6.679688 -13.789062 6.390625 -13.0625 C 6.097656 -12.332031 5.953125 -11.59375 5.953125 -10.84375 C 5.953125 -9.195312 6.566406 -7.722656 7.796875 -6.421875 C 9.035156 -5.117188 10.800781 -4.46875 13.09375 -4.46875 Z M 13.09375 -4.46875 "/></g></g></g><g fill="#737373" fill-opacity="1"><g transform="translate(46.046119, 121.794964)"><g><path d="M 0.609375 -10.84375 C 0.609375 -13.976562 1.675781 -16.628906 3.8125 -18.796875 C 5.945312 -20.960938 8.519531 -22.046875 11.53125 -22.046875 C 14.550781 -22.046875 17.117188 -20.960938 19.234375 -18.796875 C 21.359375 -16.640625 22.421875 -13.988281 22.421875 -10.84375 C 22.421875 -7.675781 21.378906 -5.007812 19.296875 -2.84375 C 17.210938 -0.6875 14.625 0.390625 11.53125 0.390625 C 8.351562 0.390625 5.738281 -0.675781 3.6875 -2.8125 C 1.632812 -4.957031 0.609375 -7.632812 0.609375 -10.84375 Z M 5.9375 -10.84375 C 5.9375 -9.707031 6.109375 -8.671875 6.453125 -7.734375 C 6.804688 -6.796875 7.421875 -6.003906 8.296875 -5.359375 C 9.171875 -4.710938 10.25 -4.390625 11.53125 -4.390625 C 13.363281 -4.390625 14.75 -5.015625 15.6875 -6.265625 C 16.625 -7.523438 17.09375 -9.050781 17.09375 -10.84375 C 17.09375 -12.613281 16.613281 -14.128906 15.65625 -15.390625 C 14.707031 -16.660156 13.332031 -17.296875 11.53125 -17.296875 C 9.738281 -17.296875 8.359375 -16.660156 7.390625 -15.390625 C 6.421875 -14.128906 5.9375 -12.613281 5.9375 -10.84375 Z M 5.9375 -10.84375 "/></g></g></g><g fill="#737373" fill-opacity="1"><g transform="translate(71.040261, 121.794964)"><g><path d="M 1.578125 -21.65625 L 7.84375 -21.65625 C 10.851562 -21.65625 13.425781 -20.625 15.5625 -18.5625 C 17.695312 -16.507812 18.765625 -13.9375 18.765625 -10.84375 C 18.765625 -7.726562 17.703125 -5.140625 15.578125 -3.078125 C 13.453125 -1.023438 10.875 0 7.84375 0 L 1.578125 0 Z M 6.515625 -4.40625 L 7.265625 -4.40625 C 9.066406 -4.40625 10.539062 -5.015625 11.6875 -6.234375 C 12.832031 -7.453125 13.414062 -8.976562 13.4375 -10.8125 C 13.4375 -12.65625 12.863281 -14.1875 11.71875 -15.40625 C 10.570312 -16.632812 9.085938 -17.25 7.265625 -17.25 L 6.515625 -17.25 Z M 6.515625 -4.40625 "/></g></g></g><g fill="#737373" fill-opacity="1"><g transform="translate(92.385151, 121.794964)"><g><path d="M 13.96875 -21.65625 L 13.96875 -17.328125 L 6.515625 -17.328125 L 6.515625 -13.015625 L 13.65625 -13.015625 L 13.65625 -8.6875 L 6.515625 -8.6875 L 6.515625 -4.328125 L 13.96875 -4.328125 L 13.96875 0 L 1.578125 0 L 1.578125 -21.65625 Z M 13.96875 -21.65625 "/></g></g></g><g fill="#96031a" fill-opacity="1"><g transform="translate(109.584675, 121.794964)"><g><path d="M 6.515625 -8.6875 L 6.515625 0 L 1.578125 0 L 1.578125 -21.65625 L 6.515625 -21.65625 L 6.515625 -13.015625 L 13.5 -13.015625 L 13.5 -21.65625 L 18.421875 -21.65625 L 18.421875 0 L 13.5 0 L 13.5 -8.6875 Z M 6.515625 -8.6875 "/></g></g></g><g fill="#96031a" fill-opacity="1"><g transform="translate(131.559655, 121.794964)"><g><path d="M 0.609375 -10.84375 C 0.609375 -13.976562 1.675781 -16.628906 3.8125 -18.796875 C 5.945312 -20.960938 8.519531 -22.046875 11.53125 -22.046875 C 14.550781 -22.046875 17.117188 -20.960938 19.234375 -18.796875 C 21.359375 -16.640625 22.421875 -13.988281 22.421875 -10.84375 C 22.421875 -7.675781 21.378906 -5.007812 19.296875 -2.84375 C 17.210938 -0.6875 14.625 0.390625 11.53125 0.390625 C 8.351562 0.390625 5.738281 -0.675781 3.6875 -2.8125 C 1.632812 -4.957031 0.609375 -7.632812 0.609375 -10.84375 Z M 5.9375 -10.84375 C 5.9375 -9.707031 6.109375 -8.671875 6.453125 -7.734375 C 6.804688 -6.796875 7.421875 -6.003906 8.296875 -5.359375 C 9.171875 -4.710938 10.25 -4.390625 11.53125 -4.390625 C 13.363281 -4.390625 14.75 -5.015625 15.6875 -6.265625 C 16.625 -7.523438 17.09375 -9.050781 17.09375 -10.84375 C 17.09375 -12.613281 16.613281 -14.128906 15.65625 -15.390625 C 14.707031 -16.660156 13.332031 -17.296875 11.53125 -17.296875 C 9.738281 -17.296875 8.359375 -16.660156 7.390625 -15.390625 C 6.421875 -14.128906 5.9375 -12.613281 5.9375 -10.84375 Z M 5.9375 -10.84375 "/></g></g></g><g fill="#96031a" fill-opacity="1"><g transform="translate(156.553796, 121.794964)"><g><path d="M 18.21875 -21.65625 L 18.21875 -7.6875 C 18.21875 -5.03125 17.5 -3.019531 16.0625 -1.65625 C 14.625 -0.289062 12.523438 0.390625 9.765625 0.390625 C 7.003906 0.390625 4.90625 -0.289062 3.46875 -1.65625 C 2.03125 -3.019531 1.3125 -5.03125 1.3125 -7.6875 L 1.3125 -21.65625 L 6.25 -21.65625 L 6.25 -9.140625 C 6.25 -7.390625 6.523438 -6.171875 7.078125 -5.484375 C 7.628906 -4.804688 8.523438 -4.46875 9.765625 -4.46875 C 11.003906 -4.46875 11.898438 -4.804688 12.453125 -5.484375 C 13.003906 -6.171875 13.28125 -7.390625 13.28125 -9.140625 L 13.28125 -21.65625 Z M 18.21875 -21.65625 "/></g></g></g><g fill="#96031a" fill-opacity="1"><g transform="translate(178.056211, 121.794964)"><g><path d="M 9.5625 -22.046875 C 10.726562 -22.046875 11.867188 -21.875 12.984375 -21.53125 C 14.109375 -21.195312 14.941406 -20.863281 15.484375 -20.53125 L 16.28125 -20 L 14.28125 -16.0625 C 14.125 -16.164062 13.90625 -16.300781 13.625 -16.46875 C 13.34375 -16.632812 12.816406 -16.859375 12.046875 -17.140625 C 11.273438 -17.421875 10.554688 -17.5625 9.890625 -17.5625 C 9.066406 -17.5625 8.429688 -17.382812 7.984375 -17.03125 C 7.546875 -16.6875 7.328125 -16.21875 7.328125 -15.625 C 7.328125 -15.320312 7.429688 -15.039062 7.640625 -14.78125 C 7.847656 -14.53125 8.203125 -14.257812 8.703125 -13.96875 C 9.210938 -13.6875 9.660156 -13.457031 10.046875 -13.28125 C 10.429688 -13.101562 11.03125 -12.84375 11.84375 -12.5 C 13.238281 -11.90625 14.429688 -11.09375 15.421875 -10.0625 C 16.410156 -9.039062 16.90625 -7.882812 16.90625 -6.59375 C 16.90625 -5.34375 16.679688 -4.253906 16.234375 -3.328125 C 15.785156 -2.398438 15.171875 -1.675781 14.390625 -1.15625 C 13.617188 -0.632812 12.757812 -0.25 11.8125 0 C 10.863281 0.257812 9.835938 0.390625 8.734375 0.390625 C 7.796875 0.390625 6.867188 0.289062 5.953125 0.09375 C 5.046875 -0.09375 4.285156 -0.328125 3.671875 -0.609375 C 3.054688 -0.898438 2.503906 -1.1875 2.015625 -1.46875 C 1.523438 -1.75 1.164062 -1.984375 0.9375 -2.171875 L 0.609375 -2.46875 L 3.078125 -6.609375 C 3.285156 -6.441406 3.570312 -6.21875 3.9375 -5.9375 C 4.300781 -5.664062 4.953125 -5.300781 5.890625 -4.84375 C 6.828125 -4.394531 7.65625 -4.171875 8.375 -4.171875 C 10.457031 -4.171875 11.5 -4.878906 11.5 -6.296875 C 11.5 -6.597656 11.421875 -6.875 11.265625 -7.125 C 11.117188 -7.375 10.859375 -7.625 10.484375 -7.875 C 10.109375 -8.132812 9.773438 -8.335938 9.484375 -8.484375 C 9.203125 -8.640625 8.734375 -8.867188 8.078125 -9.171875 C 7.421875 -9.484375 6.929688 -9.71875 6.609375 -9.875 C 5.296875 -10.519531 4.28125 -11.328125 3.5625 -12.296875 C 2.851562 -13.265625 2.5 -14.3125 2.5 -15.4375 C 2.5 -17.375 3.210938 -18.957031 4.640625 -20.1875 C 6.078125 -21.425781 7.71875 -22.046875 9.5625 -22.046875 Z M 9.5625 -22.046875 "/></g></g></g><g fill="#96031a" fill-opacity="1"><g transform="translate(197.668384, 121.794964)"><g><path d="M 13.96875 -21.65625 L 13.96875 -17.328125 L 6.515625 -17.328125 L 6.515625 -13.015625 L 13.65625 -13.015625 L 13.65625 -8.6875 L 6.515625 -8.6875 L 6.515625 -4.328125 L 13.96875 -4.328125 L 13.96875 0 L 1.578125 0 L 1.578125 -21.65625 Z M 13.96875 -21.65625 "/></g></g></g><g fill="#737373" fill-opacity="1"><g transform="translate(75.567826, 138.419177)"><g><path d="M 4.34375 0 L 3.125 0 L 2.90625 -1.390625 L 1.4375 -1.390625 L 1.234375 0 L 0.125 0 L 1.34375 -7.671875 L 3.109375 -7.671875 Z M 1.59375 -2.4375 L 2.75 -2.4375 L 2.171875 -6.3125 Z M 1.59375 -2.4375 "/></g></g></g><g fill="#737373" fill-opacity="1"><g transform="translate(84.411314, 138.419177)"><g><path d="M 2.21875 -7.671875 C 2.820312 -7.671875 3.269531 -7.507812 3.5625 -7.1875 C 3.863281 -6.863281 4.015625 -6.390625 4.015625 -5.765625 L 4.015625 -4.78125 C 4.015625 -4.15625 3.863281 -3.679688 3.5625 -3.359375 C 3.269531 -3.035156 2.820312 -2.875 2.21875 -2.875 L 1.640625 -2.875 L 1.640625 0 L 0.4375 0 L 0.4375 -7.671875 Z M 1.640625 -6.578125 L 1.640625 -3.96875 L 2.21875 -3.96875 C 2.40625 -3.96875 2.546875 -4.019531 2.640625 -4.125 C 2.742188 -4.226562 2.796875 -4.421875 2.796875 -4.703125 L 2.796875 -5.84375 C 2.796875 -6.125 2.742188 -6.316406 2.640625 -6.421875 C 2.546875 -6.523438 2.40625 -6.578125 2.21875 -6.578125 Z M 1.640625 -6.578125 "/></g></g></g><g fill="#737373" fill-opacity="1"><g transform="translate(92.926159, 138.419177)"><g><path d="M 2.21875 -7.671875 C 2.820312 -7.671875 3.269531 -7.507812 3.5625 -7.1875 C 3.863281 -6.863281 4.015625 -6.390625 4.015625 -5.765625 L 4.015625 -4.78125 C 4.015625 -4.15625 3.863281 -3.679688 3.5625 -3.359375 C 3.269531 -3.035156 2.820312 -2.875 2.21875 -2.875 L 1.640625 -2.875 L 1.640625 0 L 0.4375 0 L 0.4375 -7.671875 Z M 1.640625 -6.578125 L 1.640625 -3.96875 L 2.21875 -3.96875 C 2.40625 -3.96875 2.546875 -4.019531 2.640625 -4.125 C 2.742188 -4.226562 2.796875 -4.421875 2.796875 -4.703125 L 2.796875 -5.84375 C 2.796875 -6.125 2.742188 -6.316406 2.640625 -6.421875 C 2.546875 -6.523438 2.40625 -6.578125 2.21875 -6.578125 Z M 1.640625 -6.578125 "/></g></g></g><g fill="#737373" fill-opacity="1"><g transform="translate(101.441003, 138.419177)"><g><path d="M 0.4375 -7.671875 L 1.640625 -7.671875 L 1.640625 -1.09375 L 3.625 -1.09375 L 3.625 0 L 0.4375 0 Z M 0.4375 -7.671875 "/></g></g></g><g fill="#737373" fill-opacity="1"><g transform="translate(109.539582, 138.419177)"><g><path d="M 0.4375 -7.671875 L 1.640625 -7.671875 L 1.640625 0 L 0.4375 0 Z M 0.4375 -7.671875 "/></g></g></g><g fill="#737373" fill-opacity="1"><g transform="translate(116.005926, 138.419177)"><g><path d="M 3.9375 -2.859375 L 3.9375 -1.84375 C 3.9375 -1.21875 3.78125 -0.738281 3.46875 -0.40625 C 3.164062 -0.0703125 2.722656 0.09375 2.140625 0.09375 C 1.546875 0.09375 1.097656 -0.0703125 0.796875 -0.40625 C 0.492188 -0.738281 0.34375 -1.21875 0.34375 -1.84375 L 0.34375 -5.828125 C 0.34375 -6.453125 0.492188 -6.925781 0.796875 -7.25 C 1.097656 -7.582031 1.546875 -7.75 2.140625 -7.75 C 2.722656 -7.75 3.164062 -7.582031 3.46875 -7.25 C 3.78125 -6.925781 3.9375 -6.453125 3.9375 -5.828125 L 3.9375 -5.078125 L 2.796875 -5.078125 L 2.796875 -5.90625 C 2.796875 -6.175781 2.738281 -6.367188 2.625 -6.484375 C 2.507812 -6.597656 2.359375 -6.65625 2.171875 -6.65625 C 1.984375 -6.65625 1.832031 -6.597656 1.71875 -6.484375 C 1.601562 -6.367188 1.546875 -6.175781 1.546875 -5.90625 L 1.546875 -1.765625 C 1.546875 -1.484375 1.601562 -1.285156 1.71875 -1.171875 C 1.832031 -1.066406 1.984375 -1.015625 2.171875 -1.015625 C 2.359375 -1.015625 2.507812 -1.066406 2.625 -1.171875 C 2.738281 -1.285156 2.796875 -1.484375 2.796875 -1.765625 L 2.796875 -2.859375 Z M 3.9375 -2.859375 "/></g></g></g><g fill="#737373" fill-opacity="1"><g transform="translate(124.619368, 138.419177)"><g><path d="M 4.34375 0 L 3.125 0 L 2.90625 -1.390625 L 1.4375 -1.390625 L 1.234375 0 L 0.125 0 L 1.34375 -7.671875 L 3.109375 -7.671875 Z M 1.59375 -2.4375 L 2.75 -2.4375 L 2.171875 -6.3125 Z M 1.59375 -2.4375 "/></g></g></g><g fill="#737373" fill-opacity="1"><g transform="translate(133.462858, 138.419177)"><g><path d="M 0.09375 -7.671875 L 3.8125 -7.671875 L 3.8125 -6.578125 L 2.546875 -6.578125 L 2.546875 0 L 1.34375 0 L 1.34375 -6.578125 L 0.09375 -6.578125 Z M 0.09375 -7.671875 "/></g></g></g><g fill="#737373" fill-opacity="1"><g transform="translate(141.747667, 138.419177)"><g><path d="M 0.4375 -7.671875 L 1.640625 -7.671875 L 1.640625 0 L 0.4375 0 Z M 0.4375 -7.671875 "/></g></g></g><g fill="#737373" fill-opacity="1"><g transform="translate(148.214012, 138.419177)"><g><path d="M 1.546875 -1.765625 C 1.546875 -1.484375 1.601562 -1.285156 1.71875 -1.171875 C 1.832031 -1.054688 1.984375 -1 2.171875 -1 C 2.359375 -1 2.507812 -1.054688 2.625 -1.171875 C 2.738281 -1.285156 2.796875 -1.484375 2.796875 -1.765625 L 2.796875 -5.90625 C 2.796875 -6.175781 2.738281 -6.367188 2.625 -6.484375 C 2.507812 -6.597656 2.359375 -6.65625 2.171875 -6.65625 C 1.984375 -6.65625 1.832031 -6.597656 1.71875 -6.484375 C 1.601562 -6.367188 1.546875 -6.175781 1.546875 -5.90625 Z M 0.34375 -5.828125 C 0.34375 -6.453125 0.5 -6.925781 0.8125 -7.25 C 1.125 -7.582031 1.578125 -7.75 2.171875 -7.75 C 2.765625 -7.75 3.21875 -7.582031 3.53125 -7.25 C 3.84375 -6.925781 4 -6.453125 4 -5.828125 L 4 -1.84375 C 4 -1.21875 3.84375 -0.738281 3.53125 -0.40625 C 3.21875 -0.0703125 2.765625 0.09375 2.171875 0.09375 C 1.578125 0.09375 1.125 -0.0703125 0.8125 -0.40625 C 0.5 -0.738281 0.34375 -1.21875 0.34375 -1.84375 Z M 0.34375 -5.828125 "/></g></g></g><g fill="#737373" fill-opacity="1"><g transform="translate(156.936997, 138.419177)"><g><path d="M 1.515625 -5.546875 L 1.515625 0 L 0.421875 0 L 0.421875 -7.671875 L 1.9375 -7.671875 L 3.171875 -3.078125 L 3.171875 -7.671875 L 4.25 -7.671875 L 4.25 0 L 3.015625 0 Z M 1.515625 -5.546875 "/></g></g></g></svg>